HIERARCHY
ROOT Hips
{
	OFFSET -0.000008 104.274872 1.554316
	CHANNELS 6 Xposition Yposition Zposition Xrotation Yrotation Zrotation
	JOINT Spine
	{
		OFFSET -0.000005 10.181587 0.131521
		CHANNELS 6 Xposition Yposition Zposition Xrotation Yrotation Zrotation
		JOINT Spine1
		{
			OFFSET -0.000000 9.893967 -1.470711
			CHANNELS 3 Xrotation Yrotation Zrotation
			JOINT Spine2
			{
				OFFSET -0.000000 9.220772 -1.370643
				CHANNELS 3 Xrotation Yrotation Zrotation
				JOINT Neck
				{
					OFFSET 0.000001 16.740387 -2.049035
					CHANNELS 6 Xposition Yposition Zposition Xrotation Yrotation Zrotation
					JOINT Head
					{
						OFFSET 0.000000 9.617889 1.685008
						CHANNELS 6 Xposition Yposition Zposition Xrotation Yrotation Zrotation
						JOINT HeadTop_End
						{
							OFFSET 0.000002 22.037369 7.501095
							CHANNELS 6 Xposition Yposition Zposition Xrotation Yrotation Zrotation
							End Site
							{
								OFFSET 0.000002 23.106552 -2.828258
							}
						}
					}
				}
				JOINT RightShoulder
				{
					OFFSET -4.569969 11.014908 -2.160884
					CHANNELS 6 Xposition Yposition Zposition Xrotation Yrotation Zrotation
					JOINT RightArm
					{
						OFFSET -10.592846 -0.524811 -2.232097
						CHANNELS 3 Xrotation Yrotation Zrotation
						JOINT RightForeArm
						{
							OFFSET -27.841518 0.000000 -0.000004
							CHANNELS 3 Xrotation Yrotation Zrotation
							JOINT RightHand
							{
								OFFSET -28.328838 0.000000 0.000019
								CHANNELS 3 Xrotation Yrotation Zrotation
								JOINT RightHandThumb1
								{
									OFFSET -2.464806 -1.573990 2.681852
									CHANNELS 6 Xposition Yposition Zposition Xrotation Yrotation Zrotation
									JOINT RightHandThumb2
									{
										OFFSET -3.215187 -1.872772 1.924281
										CHANNELS 3 Xrotation Yrotation Zrotation
										JOINT RightHandThumb3
										{
											OFFSET -2.654839 -1.527985 1.512611
											CHANNELS 3 Xrotation Yrotation Zrotation
											JOINT RightHandThumb4
											{
												OFFSET -2.018822 -1.152008 1.108052
												CHANNELS 3 Xrotation Yrotation Zrotation
												End Site
												{
													OFFSET -1.888100 -1.145340 1.324313
												}
											}
										}
									}
								}
								JOINT RightHandIndex1
								{
									OFFSET -9.108284 -0.517868 2.259834
									CHANNELS 6 Xposition Yposition Zposition Xrotation Yrotation Zrotation
									JOINT RightHandIndex2
									{
										OFFSET -3.699997 0.000015 0.001215
										CHANNELS 3 Xrotation Yrotation Zrotation
										JOINT RightHandIndex3
										{
											OFFSET -2.850006 0.000000 -0.000521
											CHANNELS 3 Xrotation Yrotation Zrotation
											JOINT RightHandIndex4
											{
												OFFSET -2.772186 0.000000 -0.000020
												CHANNELS 3 Xrotation Yrotation Zrotation
												End Site
												{
													OFFSET -2.772186 0.000000 -0.000502
												}
											}
										}
									}
								}
								JOINT RightHandMiddle1
								{
									OFFSET -9.532501 -0.000046 -0.000025
									CHANNELS 6 Xposition Yposition Zposition Xrotation Yrotation Zrotation
									JOINT RightHandMiddle2
									{
										OFFSET -3.699997 0.000015 0.003713
										CHANNELS 3 Xrotation Yrotation Zrotation
										JOINT RightHandMiddle3
										{
											OFFSET -2.949997 0.000000 -0.002054
											CHANNELS 3 Xrotation Yrotation Zrotation
											JOINT RightHandMiddle4
											{
												OFFSET -2.946632 0.000015 -0.000155
												CHANNELS 3 Xrotation Yrotation Zrotation
												End Site
												{
													OFFSET -2.946625 0.000000 -0.001135
												}
											}
										}
									}
								}
								JOINT RightHandRing1
								{
									OFFSET -9.103592 -0.043076 -1.865134
									CHANNELS 6 Xposition Yposition Zposition Xrotation Yrotation Zrotation
									JOINT RightHandRing2
									{
										OFFSET -3.379272 0.000000 -0.001054
										CHANNELS 3 Xrotation Yrotation Zrotation
										JOINT RightHandRing3
										{
											OFFSET -2.889687 0.000000 0.000379
											CHANNELS 3 Xrotation Yrotation Zrotation
											JOINT RightHandRing4
											{
												OFFSET -2.638817 0.000000 0.000942
												CHANNELS 3 Xrotation Yrotation Zrotation
												End Site
												{
													OFFSET -2.638802 0.000000 0.005160
												}
											}
										}
									}
								}
								JOINT RightHandPinky1
								{
									OFFSET -8.076675 -0.486710 -3.806279
									CHANNELS 6 Xposition Yposition Zposition Xrotation Yrotation Zrotation
									JOINT RightHandPinky2
									{
										OFFSET -3.599998 -0.000031 -0.003747
										CHANNELS 3 Xrotation Yrotation Zrotation
										JOINT RightHandPinky3
										{
											OFFSET -2.099991 -0.000015 -0.005740
											CHANNELS 3 Xrotation Yrotation Zrotation
											JOINT RightHandPinky4
											{
												OFFSET -2.115776 -0.000015 -0.003680
												CHANNELS 3 Xrotation Yrotation Zrotation
												End Site
												{
													OFFSET -2.115784 -0.000015 -0.003507
												}
											}
										}
									}
								}
							}
						}
					}
				}
				JOINT LeftShoulder
				{
					OFFSET 4.570447 11.014709 -2.160855
					CHANNELS 6 Xposition Yposition Zposition Xrotation Yrotation Zrotation
					JOINT LeftArm
					{
						OFFSET 10.592369 -0.524597 -2.232120
						CHANNELS 3 Xrotation Yrotation Zrotation
						JOINT LeftForeArm
						{
							OFFSET 27.841522 -0.000031 0.000023
							CHANNELS 3 Xrotation Yrotation Zrotation
							JOINT LeftHand
							{
								OFFSET 28.328835 -0.000031 0.000018
								CHANNELS 3 Xrotation Yrotation Zrotation
								JOINT LeftHandThumb1
								{
									OFFSET 2.466141 -1.576187 2.681734
									CHANNELS 6 Xposition Yposition Zposition Xrotation Yrotation Zrotation
									JOINT LeftHandThumb2
									{
										OFFSET 3.217804 -1.872055 1.916487
										CHANNELS 3 Xrotation Yrotation Zrotation
										JOINT LeftHandThumb3
										{
											OFFSET 2.656013 -1.528809 1.514505
											CHANNELS 3 Xrotation Yrotation Zrotation
											JOINT LeftHandThumb4
											{
												OFFSET 2.020889 -1.154068 1.115134
												CHANNELS 3 Xrotation Yrotation Zrotation
												End Site
												{
													OFFSET 1.908852 -1.150833 1.300489
												}
											}
										}
									}
								}
								JOINT LeftHandIndex1
								{
									OFFSET 9.109306 -0.518036 2.259871
									CHANNELS 6 Xposition Yposition Zposition Xrotation Yrotation Zrotation
									JOINT LeftHandIndex2
									{
										OFFSET 3.699997 -0.000015 -0.000323
										CHANNELS 3 Xrotation Yrotation Zrotation
										JOINT LeftHandIndex3
										{
											OFFSET 2.850006 -0.000015 0.000350
											CHANNELS 3 Xrotation Yrotation Zrotation
											JOINT LeftHandIndex4
											{
												OFFSET 2.774864 0.000000 -0.000027
												CHANNELS 3 Xrotation Yrotation Zrotation
												End Site
												{
													OFFSET 2.774872 -0.000015 -0.000099
												}
											}
										}
									}
								}
								JOINT LeftHandMiddle1
								{
									OFFSET 9.533401 0.000031 0.000044
									CHANNELS 6 Xposition Yposition Zposition Xrotation Yrotation Zrotation
									JOINT LeftHandMiddle2
									{
										OFFSET 3.699997 -0.000015 -0.000231
										CHANNELS 3 Xrotation Yrotation Zrotation
										JOINT LeftHandMiddle3
										{
											OFFSET 2.950005 0.000000 -0.000060
											CHANNELS 3 Xrotation Yrotation Zrotation
											JOINT LeftHandMiddle4
											{
												OFFSET 2.952858 0.000000 0.000063
												CHANNELS 3 Xrotation Yrotation Zrotation
												End Site
												{
													OFFSET 2.952866 0.000000 0.000228
												}
											}
										}
									}
								}
								JOINT LeftHandRing1
								{
									OFFSET 9.104530 -0.043030 -1.865074
									CHANNELS 6 Xposition Yposition Zposition Xrotation Yrotation Zrotation
									JOINT LeftHandRing2
									{
										OFFSET 3.150002 -0.000015 0.000042
										CHANNELS 3 Xrotation Yrotation Zrotation
										JOINT LeftHandRing3
										{
											OFFSET 2.949997 0.000000 0.000037
											CHANNELS 3 Xrotation Yrotation Zrotation
											JOINT LeftHandRing4
											{
												OFFSET 2.644318 -0.000015 0.000059
												CHANNELS 3 Xrotation Yrotation Zrotation
												End Site
												{
													OFFSET 2.644318 0.000000 0.000121
												}
											}
										}
									}
								}
								JOINT LeftHandPinky1
								{
									OFFSET 8.077782 -0.486877 -3.806256
									CHANNELS 6 Xposition Yposition Zposition Xrotation Yrotation Zrotation
									JOINT LeftHandPinky2
									{
										OFFSET 3.599968 0.000031 0.014726
										CHANNELS 3 Xrotation Yrotation Zrotation
										JOINT LeftHandPinky3
										{
											OFFSET 2.099991 0.000015 0.007705
											CHANNELS 3 Xrotation Yrotation Zrotation
											JOINT LeftHandPinky4
											{
												OFFSET 2.125511 0.000015 0.007514
												CHANNELS 3 Xrotation Yrotation Zrotation
												End Site
												{
													OFFSET 2.125526 0.000015 0.006258
												}
											}
										}
									}
								}
							}
						}
					}
				}
			}
		}
	}
	JOINT RightUpLeg
	{
		OFFSET -8.207787 -6.751671 -1.599560
		CHANNELS 6 Xposition Yposition Zposition Xrotation Yrotation Zrotation
		JOINT RightLeg
		{
			OFFSET -0.000001 -44.370113 0.345939
			CHANNELS 3 Xrotation Yrotation Zrotation
			JOINT RightFoot
			{
				OFFSET 0.000001 -44.423676 -3.043536
				CHANNELS 3 Xrotation Yrotation Zrotation
				JOINT RightToeBase
				{
					OFFSET -0.000003 -8.728670 10.710561
					CHANNELS 3 Xrotation Yrotation Zrotation
					JOINT RightToe_End
					{
						OFFSET -0.000003 -0.000677 9.278120
						CHANNELS 3 Xrotation Yrotation Zrotation
						End Site
						{
							OFFSET -0.000003 -0.000677 9.278120
						}
					}
				}
			}
		}
	}
	JOINT LeftUpLeg
	{
		OFFSET 8.207791 -6.751701 -1.599555
		CHANNELS 6 Xposition Yposition Zposition Xrotation Yrotation Zrotation
		JOINT LeftLeg
		{
			OFFSET -0.000002 -44.370033 0.346958
			CHANNELS 3 Xrotation Yrotation Zrotation
			JOINT LeftFoot
			{
				OFFSET 0.000000 -44.423653 -3.044392
				CHANNELS 3 Xrotation Yrotation Zrotation
				JOINT LeftToeBase
				{
					OFFSET -0.000003 -8.728668 10.710560
					CHANNELS 3 Xrotation Yrotation Zrotation
					JOINT LeftToe_End
					{
						OFFSET -0.000003 -0.000677 9.278137
						CHANNELS 3 Xrotation Yrotation Zrotation
						End Site
						{
							OFFSET -0.000003 -0.000677 9.278137
						}
					}
				}
			}
		}
	}
}
MOTION
Frames: 4
Frame Time: 0.033333
0.144204 103.379509 1.422840 -3.753031 -5.218524 -3.761060 -0.000005 10.181586 0.131521 3.293731 1.538095 2.729311 1.146037 0.329156 1.552970 1.123711 0.356193 1.550934 0.000001 16.740362 -2.049032 5.622651 -0.077170 0.463897 0.000000 9.617893 1.685010 -7.551134 1.374726 -0.084353 0.000002 22.037354 7.501098 -0.000000 0.000000 -0.000000 -4.569972 11.014899 -2.160881 1.189523 15.344146 14.707055 13.162653 27.550926 58.781025 0.000006 6.689790 -0.000006 -20.175115 -0.523655 6.792858 -2.464809 -1.573977 2.681849 -1.404240 -0.911176 -4.389048 12.356930 -28.813467 -16.070926 -15.653632 -2.728275 -12.611536 0.000004 -0.000005 0.000006 -9.108302 -0.517867 2.259837 0.039878 1.245781 6.828421 0.210727 -1.367770 17.412761 0.046046 -0.664475 8.059113 -0.000001 0.000002 0.000003 -9.532500 -0.000058 -0.000021 -0.120991 -2.262007 14.999425 0.202523 -1.302943 17.437193 0.238878 -1.513759 18.447241 -0.000002 0.000007 0.000005 -9.103600 -0.043067 -1.865130 0.025062 -3.061540 20.463423 0.311163 -1.693305 20.948679 0.232121 -1.446063 17.897223 -0.000000 0.000003 -0.000000 -8.076681 -0.486717 -3.806276 0.721665 -4.832749 26.469411 0.167528 -1.308585 17.435108 0.164578 -1.389020 16.532092 0.000001 -0.000002 -0.000007 4.570446 11.014697 -2.160851 1.046094 -17.446004 -12.316942 3.916210 -19.989227 -69.767350 -0.000005 -1.453909 -0.000005 -33.228300 -1.359377 -6.190943 2.466134 -1.576217 2.681733 -0.448137 2.801640 4.979018 11.564285 24.508520 16.986581 -13.955000 2.828750 8.943807 -0.000003 -0.000001 0.000001 9.109315 -0.518050 2.259871 0.019763 -0.971608 -7.590826 0.269991 1.764655 -17.376618 0.057595 0.813438 -8.038806 -0.000001 0.000000 0.000005 9.533415 0.000009 0.000043 -0.078457 2.658356 -15.698650 0.268425 1.758239 -17.405229 0.300872 1.856291 -18.413097 -0.000000 -0.000002 -0.000004 9.104545 -0.043055 -1.865074 0.138205 3.645238 -21.134743 0.386828 2.094607 -20.910464 0.283327 1.800859 -17.867567 -0.000000 0.000001 -0.000001 8.077799 -0.486873 -3.806261 1.030430 5.766724 -27.138068 0.331623 1.722116 -17.406464 0.299411 1.651640 -16.506199 -0.000000 0.000000 -0.000004 -8.207788 -6.751663 -1.599560 0.603988 -10.384687 3.498381 7.413436 -9.751009 -3.277154 -3.692677 -1.648778 3.209386 -7.273480 0.000017 -0.000002 -0.000000 0.000001 -0.000000 8.207790 -6.751711 -1.599558 -10.790294 14.736256 10.341496 12.170035 2.032094 4.165235 1.271509 0.516031 -7.110103 -4.933146 0.000011 0.000001 0.000001 0.000000 -0.000000 
0.384543 101.690788 0.911080 -3.578411 -5.294782 -3.086781 -0.000006 10.181588 0.131520 5.577156 1.465037 2.403406 0.287347 0.290942 1.329328 0.267195 0.314547 1.324696 0.000001 16.740379 -2.049035 5.889524 0.155639 0.338504 0.000000 9.617890 1.685009 -6.753613 2.019295 -0.138104 0.000002 22.037354 7.501099 -0.000000 -0.000000 -0.000000 -4.569972 11.014911 -2.160881 1.135632 11.823398 14.430134 11.200851 27.848787 59.084019 0.000012 7.856592 -0.000013 -15.748203 5.035497 5.695042 -2.464809 -1.573987 2.681845 -1.298740 -0.844818 -3.846806 12.356953 -28.813460 -16.070921 -15.548673 -3.331793 -12.745848 0.000004 -0.000002 0.000000 -9.108285 -0.517866 2.259836 -0.047674 1.877276 7.880605 0.207997 -1.358955 17.299476 0.050640 -0.696132 8.451797 0.000002 0.000002 -0.000004 -9.532499 -0.000041 -0.000023 -0.120569 -2.345870 15.990345 0.199867 -1.294153 17.324368 0.249064 -1.544067 18.840110 -0.000001 0.000009 0.000013 -9.103599 -0.043088 -1.865131 0.241452 -3.656478 21.425486 0.307867 -1.684707 20.835564 0.242189 -1.476428 18.290079 0.000001 0.000001 0.000002 -8.076684 -0.486718 -3.806277 1.335528 -6.012991 27.417018 0.165073 -1.299691 17.321852 0.173138 -1.419850 16.924895 -0.000000 0.000004 0.000002 4.570447 11.014708 -2.160856 0.932465 -13.425998 -12.462993 3.015102 -19.635986 -68.634310 -0.000001 -4.606270 0.000016 -25.205471 -4.725851 -4.270175 2.466132 -1.576189 2.681730 -0.170901 2.564094 4.222728 11.448994 24.416866 17.614773 -13.986065 3.295202 9.182715 0.000004 0.000007 0.000006 9.109310 -0.518055 2.259872 -0.018738 -1.344487 -7.735748 0.309000 1.884272 -18.605570 0.072799 0.914688 -9.038172 -0.000002 0.000001 0.000005 9.533422 0.000026 0.000042 -0.077513 2.676652 -15.872919 0.306232 1.874657 -18.600980 0.330650 1.943338 -19.311808 -0.000000 -0.000003 -0.000005 9.104550 -0.043039 -1.865075 0.242896 3.920777 -21.290319 0.431537 2.207997 -22.101485 0.312335 1.888336 -18.767729 0.000002 -0.000000 0.000001 8.077806 -0.486877 -3.806262 1.325161 6.334181 -27.265767 0.373646 1.837168 -18.602203 0.329282 1.738700 -17.404779 -0.000000 -0.000002 0.000002 -8.207788 -6.751667 -1.599561 -7.192656 -10.958361 1.523534 21.488245 -7.724457 -3.631361 -10.027970 -3.550194 4.156949 -7.505434 -0.000000 -0.000001 0.000001 -0.000001 -0.000000 8.207791 -6.751699 -1.599553 -16.452573 13.570071 10.859106 22.636690 2.384272 4.070911 -3.512305 0.836325 -7.105073 -4.978098 0.000004 -0.000003 0.000000 0.000001 -0.000000 
0.665990 99.926186 -0.080857 -3.084835 -5.632822 -2.208906 -0.000005 10.181578 0.131521 8.662735 1.277612 1.826769 -0.558727 0.250079 1.061254 -0.576563 0.267631 1.054418 0.000001 16.740379 -2.049036 6.130506 0.420866 0.247856 0.000002 9.617897 1.685008 -6.130931 2.857837 -0.297981 0.000002 22.037369 7.501094 -0.000000 0.000000 0.000000 -4.569971 11.014935 -2.160886 1.035121 8.062051 13.959188 5.475648 28.842516 61.013540 -0.000004 4.334403 0.000010 -8.175172 12.271478 3.022735 -2.464799 -1.573972 2.681844 -1.011911 -0.666071 -2.411058 12.356947 -28.813484 -16.070950 -15.276405 -4.935642 -13.097637 0.000001 -0.000005 -0.000001 -9.108277 -0.517863 2.259834 -0.380323 3.448355 10.675990 0.205222 -1.349836 17.182108 0.063874 -0.780029 9.494523 -0.000004 -0.000002 -0.000003 -9.532513 -0.000044 -0.000025 -0.111727 -2.570233 18.622038 0.197098 -1.285095 17.208209 0.277203 -1.624238 19.883553 0.000002 -0.000003 -0.000000 -9.103607 -0.043066 -1.865136 0.881411 -5.138497 23.999724 0.304461 -1.675820 20.718761 0.269942 -1.556707 19.333404 -0.000002 -0.000000 -0.000005 -8.076686 -0.486710 -3.806278 3.084661 -8.910824 30.017206 0.162528 -1.290468 17.204485 0.196891 -1.501427 17.968076 0.000001 0.000001 -0.000006 4.570448 11.014736 -2.160857 0.839747 -9.009086 -12.439104 0.978885 -18.703259 -67.408223 -0.000011 -6.642932 0.000018 -12.204914 -8.975499 -1.170336 2.466135 -1.576204 2.681731 0.563234 1.915272 2.217800 11.147631 24.163194 19.285346 -14.073585 4.533671 9.826757 0.000000 0.000007 0.000006 9.109324 -0.518044 2.259873 -0.112654 -2.319991 -8.213571 0.425472 2.198729 -21.882278 0.121919 1.183138 -11.702290 -0.000004 0.000002 0.000001 9.533421 0.000021 0.000044 -0.074142 2.735079 -16.428832 0.418875 2.180885 -21.789123 0.416666 2.172984 -21.707827 0.000004 0.000001 -0.000002 9.104549 -0.043036 -1.865074 0.531389 4.655857 -21.799443 0.562265 2.505587 -25.278660 0.396256 2.119112 -21.167088 0.000000 -0.000006 0.000000 8.077803 -0.486881 -3.806257 2.129344 7.835701 -27.718883 0.497303 2.139314 -21.790301 0.415552 1.968391 -19.800408 -0.000001 0.000003 -0.000001 -8.207787 -6.751673 -1.599560 -13.306272 -10.578512 -0.033402 30.802825 -5.899280 -4.074165 -13.736054 -5.471523 4.363175 -7.634891 -0.000001 -0.000001 0.000001 -0.000002 -0.000000 8.207792 -6.751704 -1.599558 -21.090092 12.049809 10.547965 30.140573 3.974302 4.070637 -6.421642 0.856752 -7.849178 -4.858037 0.000002 -0.000002 0.000000 -0.000000 -0.000000 
0.983759 97.882980 -1.647612 -1.663237 -6.150664 -0.930509 -0.000005 10.181581 0.131520 12.051634 0.954076 0.836468 -1.148693 0.216270 0.804988 -1.164244 0.225678 0.797018 0.000001 16.740391 -2.049038 6.273742 0.707195 0.141621 0.000002 9.617911 1.685003 -5.959361 3.793409 -0.590419 0.000002 22.037338 7.501097 0.000001 0.000000 -0.000000 -4.569970 11.014925 -2.160886 0.890224 4.661456 13.207644 4.325164 26.783103 60.075141 -0.000005 12.782341 -0.000016 2.995383 12.779845 -2.080472 -2.464832 -1.573989 2.681847 -0.584336 -0.403109 -0.364839 12.356963 -28.813467 -16.070948 -14.902074 -7.236843 -13.590261 -0.000000 -0.000005 0.000006 -9.108297 -0.517867 2.259835 -1.088486 5.458331 14.693475 0.210255 -1.366205 17.392564 0.085506 -0.899793 10.988873 -0.000000 0.000001 0.000002 -9.532502 -0.000040 -0.000023 -0.079116 -2.894983 22.393819 0.202129 -1.301641 17.420404 0.320010 -1.738173 21.378967 0.000002 -0.000004 0.000004 -9.103601 -0.043070 -1.865134 1.954598 -7.037259 27.737352 0.310622 -1.691895 20.930094 0.312266 -1.670851 20.828696 0.000001 0.000003 0.000001 -8.076694 -0.486720 -3.806279 5.888143 -12.515065 33.946505 0.167076 -1.306993 17.414909 0.233494 -1.617538 19.463094 -0.000003 0.000001 -0.000001 4.570451 11.014740 -2.160858 0.767403 -4.955818 -12.029592 0.120310 -16.708320 -65.079224 -0.000016 -12.709823 0.000018 5.143535 -11.357613 3.068315 2.466128 -1.576211 2.681731 1.612712 0.938592 -0.639371 10.729891 23.774157 21.681717 -14.212311 6.305499 10.773498 -0.000002 -0.000003 0.000001 9.109304 -0.518054 2.259870 -0.243787 -3.686843 -9.089568 0.624538 2.638921 -26.605496 0.214463 1.565203 -15.541523 0.000005 -0.000005 -0.000006 9.533412 0.000002 0.000043 -0.066615 2.839171 -17.417460 0.610766 2.609992 -26.384729 0.557312 2.497044 -25.161155 0.000000 -0.000009 -0.000006 9.104534 -0.043053 -1.865075 0.977779 5.711492 -22.729355 0.779389 2.920838 -29.861751 0.533999 2.444898 -24.624304 -0.000002 -0.000011 0.000002 8.077800 -0.486885 -3.806263 3.351771 9.962928 -28.614675 0.704628 2.561461 -26.385820 0.556590 2.292493 -23.253044 -0.000002 -0.000005 0.000002 -8.207786 -6.751685 -1.599566 -20.374547 -9.320724 -1.407706 39.186711 -4.488447 -4.618600 -16.546755 -7.485834 4.222786 -8.006717 0.000003 -0.000004 -0.000000 -0.000003 -0.000000 8.207790 -6.751712 -1.599555 -26.526761 9.985898 9.466730 36.803603 6.291432 4.036274 -8.416695 1.156433 -8.827318 -5.157521 0.000005 0.000000 0.000000 0.000001 -0.000000 
